<?xml version="1.0" standalone="no"?>
<!DOCTYPE svg PUBLIC "-//W3C//DTD SVG 20010904//EN"
 "http://www.w3.org/TR/2001/REC-SVG-20010904/DTD/svg10.dtd">
<svg version="1.0" xmlns="http://www.w3.org/2000/svg"
 width="700.000000pt" height="700.000000pt" viewBox="0 0 700.000000 700.000000"
 preserveAspectRatio="xMidYMid meet">
<metadata>
Created by potrace 1.14, written by Peter Selinger 2001-2017
</metadata>
<g transform="translate(0.000000,700.000000) scale(0.100000,-0.100000)"
fill="#000000" stroke="none">
<path d="M3455 6686 c-16 -7 -39 -24 -50 -37 -11 -13 -65 -78 -120 -144 -54
-66 -107 -129 -117 -140 -14 -17 -86 -102 -182 -215 -11 -14 -100 -120 -196
-235 -96 -116 -179 -215 -185 -221 -5 -6 -27 -31 -47 -55 -72 -86 -321 -385
-362 -433 -22 -28 -57 -68 -76 -90 -20 -23 -56 -66 -80 -96 -25 -30 -47 -57
-50 -60 -3 -3 -100 -117 -215 -255 -115 -137 -243 -290 -285 -340 -41 -49 -77
-92 -80 -95 -3 -3 -35 -41 -70 -85 -36 -43 -72 -86 -80 -95 -8 -9 -33 -39 -56
-66 -52 -62 -220 -262 -242 -289 -10 -11 -109 -130 -222 -265 -113 -135 -207
-247 -210 -250 -3 -3 -43 -50 -89 -105 -46 -55 -90 -109 -100 -120 -265 -316
-332 -400 -337 -419 -8 -34 13 -99 39 -117 12 -9 121 -78 242 -154 121 -76
243 -152 270 -170 28 -18 210 -133 405 -255 195 -122 371 -232 390 -245 19
-13 244 -155 500 -316 256 -161 492 -310 525 -330 33 -21 83 -52 110 -69 28
-17 69 -43 93 -58 919 -581 889 -562 922 -562 14 0 43 11 65 23 37 21 773 484
1205 757 102 64 345 217 540 340 195 123 378 237 405 255 28 18 313 198 634
400 322 202 595 374 607 383 30 22 47 73 39 113 -4 18 -59 93 -138 188 -73 86
-199 238 -282 336 -82 99 -152 182 -155 185 -3 3 -62 73 -130 155 -69 83 -127
152 -130 155 -4 4 -240 285 -331 395 -44 53 -153 183 -172 205 -12 14 -42 50
-67 80 -25 30 -47 57 -50 60 -6 5 -397 473 -430 514 -8 10 -20 23 -26 30 -5 6
-57 67 -114 136 -58 69 -107 127 -110 130 -5 5 -131 155 -175 209 -11 13 -38
45 -60 71 -22 25 -58 68 -80 95 -22 27 -103 123 -179 214 -77 91 -227 271
-335 400 -108 129 -201 239 -206 245 -6 6 -30 36 -55 66 -25 30 -47 57 -50 60
-6 6 -52 60 -104 124 -60 73 -101 88 -161 62z"/>
</g>
</svg>
