<svg xmlns="http://www.w3.org/2000/svg" viewBox="0 0 512 512" width="96" height="96">
    <path fill="#FEBF10" d="M213.4 436.9c-2.8-3.5-7.9-5.5-11.9-7.3-4.2-1.9-8.6-3.4-12.8-5.4-4.9-2.4-9.2-5.6-14-8.1-2.7 9.7-1.2 19-1.1 29.1.1 8.8-.4 17.8 1.2 26.4 5.6-2.4 11.1-5.5 16.2-8.8 7.4-4.7 16.5-10.4 21-18.3 1.1-1.8 3.1-5.4 1.4-7.6zm166.1-209.5c-15.5-43.6-57.8-72.5-104-73.1-12.6-.2-25.3 1.2-37.3 5.5-12.8 4.7-24.5 11.7-35.1 20.2-9.6 7.7-18.7 16.6-26.8 25.8-5.2 5.9-11.5 13.6-12.4 21.7-2.4 6.5-2.9 13.5-3.4 20.5-1.7 10-2.9 20.2-3.8 30.3-1.2 13.6-1.5 27.4.9 40.9 2.2 12.5 7.1 25.1 15.7 34.6 10.4 11.3 24.4 18.8 39.1 23 13.8 4 28 5.8 42.3 6.7 13.8.9 27.8 2 41.5 1.4 26.5-1.1 53.5-9.1 71.5-29.7 30-34.1 26-87.8 11.8-127.8zm-125.7 19.3c-4.4 7.8-12 14.5-20.8 16.8-10 2.6-17.7-3.3-21.4-12.4-1.5-3.9 2.2-6.8 5.7-6.6h.5c2 .2 3.3 1.9 3.8 3.7 0-.2-.1-.4-.1-.6.6.9.9 1.8.9 2.7 5.5 8.1 16.4.7 21.4-6.4.5-1.9 1.6-3.3 3.9-4.2 4-1.6 8.3 3.3 6.1 7zm58.4 69.7c-2.5 9.5-7.9 21.9-18.7 24.3-11.9 2.6-24.3-3.6-27.9-15.6-1.8-6.2 7.6-9.5 9.4-3.3 2.1 7 10.4 12.2 17.5 8.7 5.7-2.9 8.4-10.2 9.9-16 1.6-6.2 11.5-4.3 9.8 1.9zm31-81c-2.7 8.1-6.1 16.8-15 19.5-9.6 2.9-20.1-4.1-23.6-12.8-2.4-6 7-9.3 9.4-3.3 1.7 4.1 8.4 9.1 12.9 5.9 2.2-1.6 3.6-3.9 4.7-6.4-.8-1.6-.8-3.5.9-5.1l2-2c3.2-3.1 10.5-.9 8.7 4.2zm-10.8 211.5c-.6-5-5.4-4.4-9.4-3.9-6.2.8-11.8 1.6-18 1.4-7.8-.2-15.6-.5-23.3 0 2.5 6.3 7.1 11.5 11.3 16.6 4.4 5.3 8 11.3 12.3 16.6 2.2 2.6 7.3 9 11 5 4.1-4.5 6.5-11.1 9.2-16.6 2.6-5.2 7.6-13 6.9-19.1zM177.3 130.6c-1.5-1-3.1-1.9-4.6-2.8-8.4-4.6-17.2-9.3-26.7-11.2-4.4-.9-9.7-1.9-14.2-1.2-.6.1-1 .4-1.1.5v1c.7 5 3.7 9.8 6 14.2 4.4 8.5 8.3 22.8 17.2 28.5 1.3-3.8 4-7.4 6.4-10.2 4.2-5 8.7-9.8 13.5-14.2 1.4-1.2 2.8-2.4 4-3.8l.2-.2c-.2-.2-.5-.4-.7-.6zm91-62.5c-1.7-3.7-3.5-8.6-6.9-11.1-2.5-1.9-4.9 1.1-6.3 2.9-5.4 7.2-9.3 16.3-11.8 24.9-1.2 4.2-2.6 8.8-2.6 13.2 0 .7 0 1.4.1 2 .6-.3 1.3-.5 2.1-.5 8.6-.1 17.1-1.3 25.6-.9 5.5.3 11.3.8 16.7-.2-5.3-10.2-12.1-19.6-16.9-30.3zm118.3 19.8c-7.8 1.1-15.5 3.4-22.8 6.2-7.8 2.9-16.4 6.2-22.8 11.9 1.6 1.3 3.2 2.8 4.5 3.8 3.1 2.4 6 4.9 9 7.4 4 3.4 8.2 6.8 12 10.4 1.9 1.8 4 3.8 5.4 6.1 2.7-2.1 5.9-3 8.7-5.3 3.3-2.7 4.3-9.5 5-13.4 1.9-8.7 2.8-18.2 1-27.1zm-267 273.6c-2.2-3.2-4.7-6.3-7-9.5-3.1-4.1-6.5-8.7-8.2-13.7-7.5 2.2-10.8 14.4-14.8 20.3-2.9 4.3-5.9 8.5-8.4 13-1.7 3.1-4.1 6.8-3.9 10.4.1 2 4.2 2.4 6.7 2.4 3.9 0 7.9-.4 11.7-1.1 9.9-1.9 17.5-9.4 26.8-13.2 0-.6.1-1.3.3-2 .7-1.5-2.3-5.4-3.2-6.6zm-15.4-133.2c-2.8-4.5-10.1-1.2-13.8.2-5 1.9-9.9 4.3-15 5.9-4.7 1.5-9.7 2.3-14.3 4-1.5.6-3.5 1.2-4.6 2.4 0 .1.1.1.1.2.9 1.4 2 2.8 3.3 3.9 4.2 3.9 38.2 30.1 41 24.6 2.6-5 2.3-11.5 2.8-17 .7-7.5 1.5-15 2.7-22.4-.9-.3-1.6-.9-2.2-1.8zm312.3 186.9c-1-4.6-1-8.6-1-13.3 0-4 .6-9.4-1-13.2.1.2-.2-.1-.6 0-.9.1-1.8.4-2.6.8-6 2.8-10.9 8.6-15 13.5-1.9 2.3-3.8 4.7-5.5 7.2-.4.6-.9 1.3-1.2 2-.1.6-.3 1.1-.5 1.6 4.3 3.9 8.9 7.6 13.8 10.6 5 3.1 10.7 6.3 16.7 7.1-.5-5.5-2-10.9-3.1-16.3zm28.7-230.9c-6.2.5-16-1.9-21 2.4-.7.6-1.4.9-2.1 1.1 3.4 6 6 12.6 8.5 19 .9 2.3 2.5 5.3 3.3 8.3.6.4 1.2.9 1.6 1.7 1 1.7 3.6 10.3 5.6 10.8-.3-.3 1.5-1.5 1.9-2 .8-.9 1.6-1.9 2.2-2.9 1.2-1.8 2.3-3.7 3.2-5.6 3.2-6.4 8.3-11.9 11.7-18.3 2.7-5.1 4.9-10.2 6.3-15.7-6.8-1.4-14.5.7-21.2 1.2zM461.5 309c-2.3.7-4.9.1-5.9-2.1-1.7 9.8-4.6 18.6-8.3 28-.9 2.3-3.8 8.2-2.1 10.6 1.1 1.6 3.3 2.3 5.1 2.7 7.3 1.7 14.9 1.8 22.3 2.3 3.3.2 6.8.4 10.1 1-1.8-15.8-9.2-32.2-21.2-42.5z"></path>
    <path d="M395.1 80.8c-.7-2.1-2.9-3.5-5.1-3.3-10.5.8-21 4-30.8 7.6-9.4 3.5-19.2 8-26.6 15-1.6 1.5-1.8 3.2-1.1 4.7-1.3 1.5-1.7 3.7-.5 6.1.2.3.4.5.6.8.9.6 1.7 1.2 2.6 1.8l4.8 3.6c2.6 1.9 5 3.9 7.4 6 3.3 2.9 6.8 5.8 10.1 8.7.9.8 2.3 1.9 3.5 3.1 4.6 3 9.1 6.1 13.3 9.6 1.3.1 2.7-.4 3.7-1.8 3-3.9 8.4-4.9 11.9-8.4 3.8-3.9 5.1-10.9 6.3-16 2.9-11.9 3.6-25.6-.1-37.5zm-9.3 34.3c-.8 3.9-1.7 10.7-5 13.4-2.8 2.3-6 3.2-8.7 5.3-1.4-2.3-3.5-4.3-5.4-6.1-3.8-3.7-8-7-12-10.4-3-2.6-5.9-5.1-9-7.4-1.4-1-2.9-2.5-4.5-3.8 6.3-5.6 15-9 22.8-11.9 7.3-2.7 15-5.1 22.8-6.2 1.6 8.8.7 18.3-1 27.1zm-261 241.2c-4.7-6.6-9.4-13.2-13.5-20.2-1.8-2.6-3.6-5.2-5.3-7.9-.4.2-.8.5-1.2.8-.9-.4-2-.5-3.2-.3-11.1 2.4-14.9 16.2-20.4 24.5-5.9 9-14.6 19-13.9 30.4.7 11.3 16 11.2 24 10.4 5.2-.5 10.3-1.5 15-3.7 7.1-3.3 13.2-8.5 20.6-11.2 2.2-.8 3.1-2.5 3.2-4.3.7-.5 1.2-1.2 1.6-2.2.5-1.3.7-2.6.8-3.9-2.5-4.1-4.9-8.5-7.7-12.4zm-1.9 12c-.2.7-.4 1.3-.3 2-9.2 3.7-16.9 11.3-26.8 13.2-3.9.7-7.8 1.1-11.7 1.1-2.5 0-6.6-.4-6.7-2.4-.2-3.6 2.2-7.4 3.9-10.4 2.5-4.5 5.5-8.7 8.4-13 4-5.9 7.3-18.1 14.8-20.3 1.7 5 5.1 9.5 8.2 13.7 2.4 3.1 4.8 6.2 7 9.5.8 1 3.8 4.9 3.2 6.6zM171 115.6c-11.3-5.9-22.4-9.1-35.1-10.1-6.7-.6-14.5 1.6-15.2 9.4-.6 6.8 3.3 13.5 6.3 19.3 6.7 12.9 11.7 30.2 26.1 36.2 4.8-5.6 10.4-10.5 15.7-15.5 2.2-2.6 4.6-5 6.9-7.4 4.3-4.5 12.7-9.5 12.7-16.5.2-8.1-11.8-12.5-17.4-15.4zm6.8 15.8c-1.2 1.4-2.6 2.6-4 3.8-4.8 4.3-9.3 9.2-13.5 14.2-2.4 2.8-5.1 6.4-6.4 10.2-8.9-5.7-12.8-20-17.2-28.5-2.3-4.4-5.4-9.2-6-14.2v-1c.2-.1.5-.4 1.1-.5 4.5-.7 9.8.3 14.2 1.2 9.5 1.9 18.2 6.6 26.7 11.2 1.6.9 3.2 1.7 4.6 2.8.2.2.5.4.7.6-.1.1-.1.2-.2.2zm119.3-31.6c-4.1-9-9.7-17.1-14.7-25.6-3-5.2-5.1-10.9-7.9-16.3-2.7-5.2-6.5-9.9-12.3-11.3-5.4-1.3-10.8 2.2-14.1 6.1-7.5 9-12.1 21.1-15.2 32.2-1.8 6.4-3.8 16.5-.2 23.1 7-.7 14.7.5 21.3.8.9 0 1.9.1 2.8.1 4.7-.3 9.4-.4 14.2-.2 7.8.4 15.7.8 23-2.5 2.3-1 4.3-3.7 3.1-6.4zm-28.5-1.2c-8.6-.4-17.1.8-25.6.9-.8 0-1.5.2-2.1.5 0-.7-.1-1.3-.1-2 0-4.4 1.3-9 2.6-13.2 2.5-8.6 6.4-17.7 11.8-24.9 1.4-1.8 3.7-4.8 6.3-2.9 3.4 2.5 5.2 7.4 6.9 11.1 4.7 10.7 11.6 20.1 17 30.3-5.5 1.1-11.3.5-16.8.2zM110.3 220c-9.7-9.7-27.9 1.3-38.3 5-9.7 3.4-33.4 6.6-23.3 22.5 2.6 4.1 6.9 7.3 10.7 10.1 5.1 3.7 10.2 7.4 15.4 11 7.7 5.4 18.3 14.2 28.4 11.1 7.3-2.2 8.7-11.6 9.4-18 1.3-12.2 2.2-24.4 4.5-36.4 1-4.3-3.5-6.5-6.8-5.3zm-6.7 32.6c-.5 5.5-.3 12-2.8 17-2.8 5.5-36.8-20.7-41-24.6-1.3-1.2-2.3-2.5-3.3-3.9 0-.1-.1-.1-.1-.2 1.1-1.3 3.1-1.9 4.6-2.4 4.7-1.7 9.6-2.5 14.3-4 5.1-1.7 10-4 15-5.9 3.8-1.4 11.1-4.7 13.8-.2.6.9 1.3 1.5 2.1 1.9-1.1 7.3-1.9 14.8-2.6 22.3zm378 65.6c-3.4-6-7.8-11.6-12.9-16.3-2.2-2-5.7-5.5-9-4.2-1.9.8-3 1.9-3.6 3.3-1.4-4.4-8.8-5.1-9.6.5-.9 6.4-2 12.8-4 19-1.7 5.2-4.3 10-6 15.2-2.5 8-1.8 15.8 6 20.1 6.6 3.7 15.4 3.7 22.8 4.1 6.5.4 15-.2 20.9 3 3.5 2 7.3-1.3 7.2-4.9-.2-13.9-4.9-27.7-11.8-39.8zm-8.9 32.2c-7.5-.5-15-.6-22.3-2.3-1.8-.4-4-1.1-5.1-2.7-1.7-2.4 1.2-8.3 2.1-10.6 3.7-9.3 6.6-18.2 8.3-28 .9 2.2 3.6 2.9 5.9 2.1 11.9 10.3 19.3 26.7 21.3 42.4-3.4-.5-6.9-.6-10.2-.9zm1.9-175.4c-9.8-3.9-20-1.7-30.2-.7-8.4.8-18.8-1.9-25.9 4.1-2 1.7-2.2 4.1-1.5 6.1-3.1.5-6 4.2-3.9 7.8 2.5 4.3 4.3 9.1 6.3 13.7 1.1 2.5 2.1 5 3.1 7.6.7 1.3 1.3 2.6 2 3.9.1-.2.2-.3.3-.5-.1.3-.1.6-.1.8.8 1.7 1.6 3.4 2.4 5.2.3.2.5.3.8.4 2.7 5 3.9 10.3 9.4 13.2 6.3 3.4 12.3-2.9 15.6-7.5 4.5-6.3 8.6-13.2 12.7-19.8 5.5-8.8 10-18.5 11.7-28.9.3-2-.6-4.6-2.7-5.4zm-14.4 23.7c-3.4 6.4-8.4 11.9-11.7 18.3-1 1.9-2.1 3.8-3.2 5.6-.7 1-1.4 2-2.2 2.9-.5.6-2.3 1.8-1.9 2-2.1-.6-4.6-9.2-5.6-10.8-.5-.8-1-1.3-1.6-1.7-.7-3-2.3-6-3.3-8.3-2.6-6.4-5.2-13-8.5-19 .7-.1 1.4-.5 2.1-1.1 5.1-4.3 14.8-1.9 21-2.4 6.8-.5 14.4-2.6 21.3-1.3-1.5 5.6-3.7 10.7-6.4 15.8zm-33.7 216.1c-1.4-6.3-.9-12.2-1.1-18.6-.1-4.9-.4-11.4-4.3-14.9-3.1-2.9-7.4-2.9-11.3-2-8.3 2-15.3 10.2-20.6 16.4-2.6 3-9.4 9.7-9.9 14.9-2 1.8-2.8 5.1-.3 7.6 11.3 11.2 28.7 25.1 45.7 23.2 2-.2 4.4-1.8 4.5-4 .6-7.8-.9-15-2.7-22.6zm-23.8 9.6c-4.9-3-9.6-6.7-13.8-10.6.3-.5.5-1 .5-1.6.4-.7.8-1.4 1.2-2 1.7-2.5 3.6-4.8 5.5-7.2 4.1-5 9.1-10.7 15-13.5.8-.4 1.7-.7 2.6-.8.4 0 .7.2.6 0 1.7 3.8 1.1 9.2 1 13.2-.1 4.6 0 8.7 1 13.3 1.1 5.4 2.7 10.7 3 16.2-5.8-.7-11.5-3.9-16.6-7zm-71 8.8c-6-1.7-12.8.3-18.8 1.2-5.3.7-11.1-.1-16.4-.2-5.8-.2-11.7-.1-17.5.4-3.3.3-4.7 3-4.4 5.5-2.2.9-3.9 3.2-2.9 6.1 2.9 8.8 9.3 15.9 15.1 22.9 5.3 6.5 9.3 14 15.4 19.8 4.8 4.4 12 6.9 17.9 3.3 7.1-4.3 10-13.2 13.6-20.3 5.8-11.2 16.5-33.5-2-38.7zm-6.2 32.8c-2.7 5.5-5.1 12.1-9.2 16.6-3.7 4-8.8-2.3-11-5-4.4-5.4-7.9-11.3-12.3-16.6-4.2-5.1-8.8-10.4-11.3-16.6 7.8-.5 15.6-.2 23.3 0 6.3.2 11.9-.6 18-1.4 4-.5 8.8-1.1 9.4 3.9.7 6.1-4.3 13.9-6.9 19.1zm-102.2-31.4c-1.2-4.9-6.6-8.2-10.7-10.5-5.1-3-10.8-5.1-16.3-7.3-7-2.9-12.9-7.7-19.8-10.7-1.4-.6-2.7-.6-3.8-.1-2.2-1-4.8-.5-6 2.4-4.4 11.6-4 22.5-3.3 34.7.7 12.5-.7 25 3.1 37.2.8 2.6 3.9 3.9 6.4 3.1 9-3.1 17.6-8 25.6-13.2 8.9-5.7 18.3-12.9 23.2-22.5 2.2-4.3 2.6-8.7 1.6-13.1zM212 444.7c-4.5 7.9-13.5 13.6-21 18.3-5.1 3.3-10.6 6.3-16.2 8.8-1.6-8.7-1.1-17.7-1.2-26.4-.2-10.1-1.6-19.5 1.1-29.1 4.8 2.5 9.2 5.7 14 8.1 4.2 2 8.6 3.5 12.8 5.4 4 1.8 9.1 3.7 11.9 7.3 1.7 2-.3 5.6-1.4 7.6zm35.7-204.9c-2.3 1-3.4 2.3-3.9 4.2-5 7-15.9 14.4-21.4 6.4 0-.9-.3-1.8-.9-2.7 0 .2.1.4.1.6-.5-1.8-1.9-3.5-3.8-3.7h-.5c-3.5-.3-7.2 2.7-5.7 6.6 3.6 9.1 11.3 14.9 21.4 12.4 8.8-2.2 16.4-9 20.8-16.8 2.2-3.8-2.1-8.7-6.1-7zm86.9-8.6-2 2c-1.7 1.7-1.7 3.6-.9 5.1-1.1 2.5-2.5 4.9-4.7 6.4-4.5 3.2-11.2-1.8-12.9-5.9-2.4-6-11.9-2.7-9.4 3.3 3.5 8.8 14 15.8 23.6 12.8 8.9-2.7 12.3-11.5 15-19.5 1.7-5.1-5.6-7.3-8.7-4.2zm-32.2 83.3c-1.5 5.8-4.2 13.1-9.9 16-7.1 3.5-15.4-1.7-17.5-8.7-1.8-6.2-11.3-2.9-9.4 3.3 3.6 12 16 18.2 27.9 15.6 10.8-2.4 16.2-14.8 18.7-24.3 1.7-6.2-8.2-8.1-9.8-1.9z"></path>
    <path d="M392.5 235.8c-6.1-22.2-16.7-41.9-33.4-57.9-30.1-29-76.3-40.2-116.5-29.9-23.9 6.1-44.5 21.6-61.6 38.7-11.4 11.3-28.4 27.2-27.1 44.7-.2.4-.3.7-.4 1.2-4.8 21.2-7.4 43.8-7.5 65.5 0 19.9 3.9 40.3 15.5 56.8 14 19.8 37.8 29.9 60.8 34.7 13.8 2.9 28 3.8 42 4.4 13.7.7 27.3 1.5 41 .4 26-2.2 51.1-12.2 69.1-31.5 15.2-16.3 22.6-38.3 24.8-60.1 2.3-22.6-.8-45.3-6.7-67zm-24.7 119.4c-18 20.6-45 28.6-71.5 29.7-13.8.6-27.8-.5-41.5-1.4-14.3-.9-28.5-2.7-42.3-6.7-14.7-4.2-28.7-11.7-39.1-23-8.7-9.5-13.5-22.1-15.7-34.6-2.4-13.5-2.1-27.3-.9-40.9.9-10 2.1-20.2 3.8-30.3.5-7 1-14 3.4-20.5.9-8.1 7.2-15.8 12.4-21.7 8.1-9.3 17.2-18.1 26.8-25.8 10.6-8.5 22.3-15.6 35.1-20.2 11.9-4.4 24.6-5.7 37.3-5.5 46.1.6 88.5 29.4 104 73.1 14.1 40 18.1 93.7-11.8 127.8z"></path>
</svg>